<svg xmlns="http://www.w3.org/2000/svg" viewBox="0 0 100 100">
  <!-- Outer tire -->
  <circle cx="50" cy="50" r="45" fill="#1a1a1a" stroke="#333" stroke-width="2"/>

  <!-- Inner rim -->
  <circle cx="50" cy="50" r="30" fill="#2a2a2a" stroke="#444" stroke-width="1"/>

  <!-- Tire treads -->
  <g fill="none" stroke="#0a0a0a" stroke-width="3" stroke-linecap="round">
    <path d="M 50 5 Q 52 8, 50 11"/>
    <path d="M 70 13 Q 72 16, 70 19"/>
    <path d="M 85 30 Q 87 33, 85 36"/>
    <path d="M 92 50 Q 94 53, 92 56"/>
    <path d="M 85 70 Q 87 73, 85 76"/>
    <path d="M 70 87 Q 72 90, 70 93"/>
    <path d="M 50 95 Q 52 92, 50 89"/>
    <path d="M 30 87 Q 28 90, 30 93"/>
    <path d="M 15 70 Q 13 73, 15 76"/>
    <path d="M 8 50 Q 6 53, 8 56"/>
    <path d="M 15 30 Q 13 33, 15 36"/>
    <path d="M 30 13 Q 28 16, 30 19"/>
  </g>

  <!-- Center hub -->
  <circle cx="50" cy="50" r="15" fill="#E31E24" stroke="#c41820" stroke-width="2"/>

  <!-- Lug nuts -->
  <circle cx="50" cy="35" r="3" fill="#1a1a1a"/>
  <circle cx="63" cy="43" r="3" fill="#1a1a1a"/>
  <circle cx="63" cy="57" r="3" fill="#1a1a1a"/>
  <circle cx="50" cy="65" r="3" fill="#1a1a1a"/>
  <circle cx="37" cy="57" r="3" fill="#1a1a1a"/>
  <circle cx="37" cy="43" r="3" fill="#1a1a1a"/>
</svg>
